<svg width="261" height="201" viewBox="0 0 261 201" fill="none" xmlns="http://www.w3.org/2000/svg">
<path d="M130 0L173.301 75H86.6987L130 0Z" fill="#F16D6A"/>
<path d="M130 200.5L86.6987 75H173.301L130 200.5Z" fill="#E53935"/>
<path d="M130 200.5L86.6988 75H0L130 200.5Z" fill="#C72828"/>
<path d="M43.4 0L86.7013 75H0.0987549L43.4 0Z" fill="#E53935"/>
<path d="M130.001 200.5L173.302 75H260.001L130.001 200.5Z" fill="#C72828"/>
<path d="M173.3 75L129.999 0H216.601L173.3 75Z" fill="#EF5350"/>
<path d="M86.7 75L43.3987 0H130.001L86.7 75Z" fill="#EF5350"/>
<path d="M216.6 0L259.901 75H173.299L216.6 0Z" fill="#E53935"/>
<path d="M186.825 17.2996C187.42 15.7729 189.58 15.7729 190.175 17.2996L198.442 38.5232C198.902 39.7016 198.032 40.9731 196.767 40.9731H180.233C178.968 40.9731 178.099 39.7016 178.558 38.5232L186.825 17.2996Z" fill="#FFF7F7"/>
<path d="M186.825 79.7005C187.42 81.227 189.58 81.227 190.175 79.7005L198.442 58.4769C198.902 57.2984 198.032 56.0269 196.767 56.0269H180.233C178.968 56.0269 178.099 57.2984 178.558 58.4769L186.825 79.7005Z" fill="#FFF7F7"/>
<path d="M219.7 46.8251C221.227 47.4198 221.227 49.5802 219.7 50.1749L198.477 58.4423C197.298 58.9015 196.027 58.032 196.027 56.7674V40.2326C196.027 38.9679 197.298 38.0987 198.477 38.5578L219.7 46.8251Z" fill="#FFF7F7"/>
<path d="M157.3 46.8251C155.773 47.4198 155.773 49.5802 157.3 50.1749L178.523 58.4423C179.702 58.9015 180.973 58.032 180.973 56.7674V40.2326C180.973 38.9679 179.702 38.0987 178.523 38.5578L157.3 46.8251Z" fill="#FFF7F7"/>
<path d="M198.386 39.962H179.063V56.5886H198.386V39.962Z" fill="#FFF7F7"/>
</svg>
