<svg version="1" xmlns="http://www.w3.org/2000/svg" width="333.333" height="333.333" viewBox="0 0 250.000000 250.000000"><path d="M122 125v125h128V0H122v125zm25.5 1.5c9.8 25 18.2 45.1 18.6 44.7.4-.4 8.5-20.3 17.9-44.2 9.5-23.9 17.4-44.1 17.7-44.8.3-.6 1.4-1.2 2.5-1.2 1.2 0 1.8.5 1.5 1.2-.3.7-8.7 22-18.7 47.3-10 25.3-18.4 46.6-18.7 47.3-.3.7-1.5 1.2-2.6 1-1.8-.3-5.1-7.8-20.9-47.8-10.3-26.1-18.8-47.8-18.8-48.3 0-.4.8-.7 1.8-.7 1.3 0 5.5 9.7 19.7 45.5zm5.9-7.9c11.4 29.1 14.6 38.1 14.1 40.2-.5 2.2-.8 2.4-1.5 1.1-1-1.8-29.3-73.2-30.4-76.7-.6-1.7-.3-2.2 1.1-2.2 1.5 0 4.7 7.2 16.7 37.6zm7-5.3c11.6 29.4 13.4 35.7 10.7 35.7-.5 0-21.2-51.5-26.7-66.3-.4-1.2-.1-1.7 1.3-1.7 1.7 0 4.1 5.3 14.7 32.3zm6.5-6.3c8.6 21.7 10.2 26.5 9.6 29.2-.7 2.9-1.8.5-11.6-24.2-13.4-33.7-12.5-31-10.1-31 1.5 0 3.7 4.6 12.1 26zm47.8-24.8c-1.2 3.3-32.8 83.1-35.2 89-2.1 5.2-3.2 6.8-4.7 6.8-1.2 0-1.8-.5-1.5-1.3 2-5 30.5-77 33.8-85.3 3.3-8.4 4.4-10.4 6.1-10.4 1.2 0 1.8.5 1.5 1.2zm8.9.5c-.4 1-8.9 22.7-19 48.3-16 40.3-18.7 46.5-20.6 46.8-1.2.2-2 0-1.8-.5.3-.4 9-22.3 19.3-48.6C217.2 89 220.6 81 222.2 81c1.4 0 1.8.5 1.4 1.7zm9 0c-.3 1-8.8 22.7-19 48.3-15.8 40.1-18.6 46.5-20.5 46.8-2.1.3-2.1.2-.8-3 .7-1.8 9.4-23.7 19.2-48.6C226.3 88.8 229.7 81 231.2 81c1.4 0 1.8.5 1.4 1.7zM17 129.5V178h5l.2-43.4.3-43.3 16.1 30.6c14.4 27.2 16.5 30.6 18.8 30.9 1.4.2 2.6.1 2.6-.3 0-.3-8.4-16.5-18.7-36C23.5 82.9 22.4 81 19.8 81H17v48.5zM27.1 81.8c.2.5 8.7 16.7 18.9 36.1C63.6 151.2 64.6 153 67.3 153h2.8l-8.3-15.8c-31.5-59.9-29.1-55.7-32.2-56-1.5-.2-2.7.1-2.5.6zM49.2 105.7c7.1 13.7 15.7 29.9 19 36.1 8.9 16.8 7.6 17.7 27.3-19.7l16-30.4.3 43.2.2 43.1h5V81h-2.7c-2.6 0-3.8 1.9-19.3 31.6-9.1 17.4-17 32.3-17.5 33.1-.8 1.1-5.1-6.4-18.4-31.7C42.7 82.9 41.6 81 39 81c-2.8 0-2.7.2 10.2 24.7z"/><path d="M80.3 104.1c-10.6 20-12.1 23.3-11 25 .6 1 1.4 1.9 1.7 1.9.4 0 4.6-7.5 9.5-16.8 4.8-9.2 10.8-20.4 13.3-25l4.4-8.2h-2.9c-2.6 0-3.5 1.3-15 23.1zM88.9 106.2c-7.2 13.9-13.8 26.3-14.6 27.6-1.1 1.9-1.2 2.6 0 4.8l1.4 2.7 4-7.4c7.8-14.3 27.3-51.6 27.3-52.3 0-.3-1.1-.6-2.4-.6-2.2 0-3.9 2.8-15.7 25.2zM26 140.2c0 37.1 0 37.8 2 37.8s2-.7 2-34.3c-.1-31.8-.2-34.4-2-37.7l-1.9-3.5-.1 37.7zM105.7 106.5c-1.5 3.1-1.7 7.7-1.7 37.5v34h5v-37.5c0-20.6-.4-37.5-.8-37.5-.5 0-1.6 1.6-2.5 3.5zM34 148.2V178h5v-25.8c0-25.6 0-25.7-2.5-29.7l-2.4-4-.1 29.7zM97.2 122.9c-2.1 3.7-2.2 5-2.2 29.5V178h5v-29.5c0-16.2-.1-29.5-.3-29.5-.2 0-1.3 1.7-2.5 3.9zM42 156.5V178h5v-17.9c0-16.5-.2-18.3-2.1-21.5-1.2-2-2.3-3.6-2.5-3.6-.2 0-.4 9.7-.4 21.5zM89 139c-1.8 3.5-2 5.8-2 21.5V178h5v-21.5c0-11.8-.2-21.5-.5-21.5-.2 0-1.4 1.8-2.5 4z"/></svg>